<mxfile host="app.diagrams.net" modified="2024-03-17T18:02:04.051Z" agent="Mozilla/5.0 (Windows NT 10.0; Win64; x64) AppleWebKit/537.36 (KHTML, like Gecko) Chrome/122.0.0.0 Safari/537.36 Edg/122.0.0.0" version="22.1.19" etag="WGQGXn1S3o8_156ePBCV" type="github">
  <diagram name="Page-1" id="1HI9dfpJcafJoC80jGmo">
    <mxGraphModel>
      <root>
        <mxCell id="0" />
        <mxCell id="1" parent="0" />
      </root>
    </mxGraphModel>
  </diagram>
</mxfile>
